<svg xmlns="http://www.w3.org/2000/svg" width="24" height="24" fill="none" viewBox="0 0 24 24">
    <path fill="#aaa" fill-rule="evenodd"
        d="M12 22C17.5228 22 22 17.5228 22 12C22 6.47715 17.5228 2 12 2C6.47715 2 2 6.47715 2 12C2 17.5228 6.47715 22 12 22ZM10.9136 13.2756C10.8303 13.836 11.3056 14.2984 11.8721 14.2984H12.3423C12.6194 14.2984 12.8488 14.083 12.8663 13.8065C12.9232 13.2796 13.1485 12.8199 13.5422 12.4274L14.1715 11.8065C14.6635 11.3118 15.008 10.8629 15.2048 10.4597C15.4016 10.0511 15.5 9.61828 15.5 9.16129C15.5 8.15591 15.197 7.37903 14.591 6.83065C13.985 6.27688 13.133 6 12.035 6C10.9473 6 10.0875 6.29032 9.4556 6.87097C9.08087 7.21816 8.81632 7.64512 8.66195 8.15186C8.47809 8.75539 9.02141 9.28226 9.65233 9.28226C10.1864 9.28226 10.5845 8.84723 10.9561 8.44128C11.0079 8.3846 11.0593 8.32848 11.1104 8.27419C11.3435 8.02688 11.6517 7.90323 12.035 7.90323C12.843 7.90323 13.2469 8.35753 13.2469 9.26613C13.2469 9.5672 13.1693 9.85484 13.0139 10.129C12.8585 10.3978 12.5451 10.75 12.0738 11.1855C11.6077 11.6156 11.2865 12.0538 11.1104 12.5C11.0232 12.721 10.9576 12.9795 10.9136 13.2756ZM10.9706 15.8871C10.7375 16.1183 10.621 16.414 10.621 16.7742C10.621 17.129 10.7349 17.422 10.9628 17.6532C11.1959 17.8844 11.5015 18 11.8796 18C12.2577 18 12.5607 17.8844 12.7886 17.6532C13.0216 17.422 13.1382 17.129 13.1382 16.7742C13.1382 16.414 13.0191 16.1183 12.7808 15.8871C12.5477 15.6505 12.2473 15.5323 11.8796 15.5323C11.5118 15.5323 11.2088 15.6505 10.9706 15.8871Z"
        clip-rule="evenodd" />
</svg>